<?xml version="1.0" encoding="utf-8"?>
<!-- Generator: Adobe Illustrator 25.0.0, SVG Export Plug-In . SVG Version: 6.00 Build 0)  -->
<svg version="1.1" id="Layer_1" xmlns="http://www.w3.org/2000/svg" xmlns:xlink="http://www.w3.org/1999/xlink" x="0px" y="0px"
	 viewBox="0 0 1000 107.6" style="enable-background:new 0 0 1000 107.6;" xml:space="preserve">
<style type="text/css">
	.st0{display:none;}
	.st1{display:inline;fill:#FAA52D;}
	.st2{display:inline;fill:none;stroke:#FAA52D;stroke-width:4;stroke-miterlimit:10;}
	.st3{fill:#FAA52D;}
</style>
<image style="display:none;overflow:visible;" width="2688" height="420" xlink:href="The Health Lab long logo.png"  transform="matrix(0.2523 0 0 0.2523 160.8844 -39.347)">
</image>
<g class="st0">
	<path class="st1" d="M218.9-90.9H197v55.6h-4.5v-55.6h-21.8v-4.2h48.2V-90.9z"/>
	<path class="st1" d="M265.1-64.7v29.4h-4.5v-28c0-9.9-5.4-14.3-13.2-14.3c-8.5,0-16.2,6.2-16.2,16.8v25.5h-4.5v-66.1h4.5v29.9
		c2.9-6.5,9.1-10,16.7-10C257.9-81.5,265.1-75.8,265.1-64.7z"/>
	<path class="st1" d="M318.3-56h-35.9c0.6,11.1,6.8,17.7,16.9,17.7c7.1,0,12.5-3,14.8-8.3l3.8,2c-3.4,6.4-9.5,10.3-18.6,10.3
		c-13.4,0-21.4-8.9-21.4-23.6s7.6-23.6,20.8-23.6c12.6,0,19.7,9.2,19.7,22.5C318.5-57.8,318.4-56.8,318.3-56z M282.5-60.1h31.8
		c-0.6-10.8-6.1-17.4-15.5-17.4C289-77.5,283.1-71.1,282.5-60.1z"/>
	<path class="st1" d="M407.2-95.1v59.8h-4.5v-28.3h-37v28.3h-4.5v-59.8h4.5v27.3h37v-27.3H407.2z"/>
	<path class="st1" d="M461.5-56h-35.9c0.6,11.1,6.8,17.7,16.9,17.7c7.1,0,12.5-3,14.8-8.3l3.8,2c-3.4,6.4-9.5,10.3-18.6,10.3
		c-13.4,0-21.4-8.9-21.4-23.6s7.6-23.6,20.8-23.6c12.6,0,19.7,9.2,19.7,22.5C461.7-57.8,461.6-56.8,461.5-56z M425.6-60.1h31.8
		c-0.6-10.8-6.1-17.4-15.5-17.4C432.1-77.5,426.2-71.1,425.6-60.1z"/>
	<path class="st1" d="M514.6-38.9l-0.3,3.6c-1,0.5-2.5,0.9-4.4,0.9c-3.7,0-7-1.5-7.4-7.7c-2.9,5.1-10,7.7-16.4,7.7
		c-8.7,0-14.8-4-14.8-11.5c0-6.9,5.4-11.5,17.2-13.6l13.9-2.4v-4c0-7.2-4.3-11.6-12.3-11.6c-7.1,0-12,3-14.5,9.6l-3.4-2.5
		c2.6-7.1,9-11.1,17.9-11.1c10.2,0,16.8,5,16.8,15v23.4c0,3.3,1.4,4.8,4.2,4.8C512.3-38.3,513.7-38.5,514.6-38.9z M502.3-49.8v-8.4
		l-12.4,2.3c-9.8,1.8-14,5-14,10.1c0,4.8,4,7.5,10.6,7.5C493.6-38.4,502.3-42.2,502.3-49.8z"/>
	<path class="st1" d="M528-46.3c0,5.5,1.6,7.6,5.7,7.6c2.5,0,3.9-0.4,6-1.3l-0.6,4.3c-1.5,0.7-3.6,1.2-6,1.2
		c-6.4,0-9.6-3.5-9.6-11.4v-55.6h4.5V-46.3z"/>
	<path class="st1" d="M572.4-38.2c-2.4,2.3-5.9,3.8-10.2,3.8c-7.1,0-11.8-3.8-11.8-12.2v-30.1h-9.1v-3.9h9.1v-11.3l4.5-1.3v12.6h17
		v3.9h-17v29.4c0,5.7,2.8,8.7,8,8.7c3.3,0,5.7-1.2,7.9-3.4L572.4-38.2z"/>
	<path class="st1" d="M620-64.7v29.4h-4.5v-28c0-9.9-5.4-14.3-13.2-14.3c-8.5,0-16.2,6.2-16.2,16.8v25.5h-4.5v-66.1h4.5v29.9
		c2.9-6.5,9.2-10,16.7-10C612.8-81.5,620-75.8,620-64.7z"/>
	<path class="st1" d="M695.8-39.5v4.2h-30.4v-59.8h4.5v55.6H695.8z"/>
	<path class="st1" d="M794.6-57.8c-0.1,14.8-8,23.5-20.7,23.5c-8.2,0-14.3-4.3-16.8-11.1l-0.3,10.1l-4.1,0l0.2-66.1l4.5,0L757.3-71
		c2.7-6.4,8.8-10.5,16.7-10.5C786.8-81.4,794.6-72.6,794.6-57.8z M790.1-57.8c0-12.1-6.1-19.6-16.6-19.6c-9.8,0-16.2,7.3-16.2,19.1
		l0,0.9c0,11.9,6.4,19.1,16.1,19.2C783.8-38.3,790-45.7,790.1-57.8z"/>
	<line class="st2" x1="713.9" y1="-82.4" x2="734.3" y2="-82.4"/>
	<path class="st2" d="M740.6-37.6l-33.1-0.1c-1.6,0-2.6-1.7-1.8-3L719.2-67l0.1-15.4l9.9,0L729.1-67l13.4,26.4
		C743.2-39.2,742.2-37.6,740.6-37.6z"/>
	<line class="st2" x1="711.6" y1="-52.4" x2="736.5" y2="-52.3"/>
</g>
<g>
	<path class="st3" d="M77.2,16.8h-35V106H35V16.8H0v-6.7h77.2V16.8z"/>
	<path class="st3" d="M151.4,58.8V106h-7.3V61.1c0-15.8-8.7-22.9-21.2-22.9c-13.6,0-26,9.9-26,26.9V106h-7.3V0H97v47.9
		c4.6-10.5,14.7-16,26.7-16C139.8,31.9,151.4,41.1,151.4,58.8z"/>
	<path class="st3" d="M236.7,72.7h-57.5c1,17.7,10.9,28.3,27,28.3c11.3,0,20-4.8,23.7-13.4l6.1,3.2c-5.4,10.3-15.2,16.6-29.8,16.6
		c-21.5,0-34.3-14.2-34.3-37.8s12.2-37.8,33.4-37.8c20.2,0,31.7,14.8,31.7,36C237,69.8,236.8,71.6,236.7,72.7z M179.2,66.2h51
		c-1-17.3-9.7-27.9-24.8-27.9C189.6,38.3,180.2,48.6,179.2,66.2z"/>
	<path class="st3" d="M379.1,10.2V106h-7.3V60.7h-59.2V106h-7.3V10.2h7.3v43.7h59.2V10.2H379.1z"/>
	<path class="st3" d="M466.1,72.7h-57.5c1,17.7,10.9,28.3,27,28.3c11.3,0,20-4.8,23.7-13.4l6.1,3.2c-5.4,10.3-15.2,16.6-29.8,16.6
		c-21.5,0-34.3-14.2-34.3-37.8s12.2-37.8,33.4-37.8c20.2,0,31.7,14.8,31.7,36C466.4,69.8,466.2,71.6,466.1,72.7z M408.6,66.2h51
		c-1-17.3-9.7-27.9-24.8-27.9C419,38.3,409.6,48.6,408.6,66.2z"/>
	<path class="st3" d="M551.2,100.2l-0.4,5.8c-1.6,0.9-4.1,1.5-7.1,1.5c-6,0-11.2-2.5-11.9-12.3c-4.6,8.1-16,12.3-26.3,12.3
		c-13.9,0-23.7-6.4-23.7-18.4c0-11,8.7-18.4,27.6-21.8l22.2-3.9v-6.4c0-11.5-7-18.6-19.7-18.6c-11.3,0-19.2,4.8-23.2,15.4l-5.5-4.1
		c4.2-11.3,14.4-17.7,28.7-17.7c16.4,0,27,8,27,24.1v37.5c0,5.2,2.3,7.7,6.7,7.7C547.5,101.2,549.7,100.9,551.2,100.2z M531.6,82.8
		V69.3l-19.9,3.6c-15.7,2.9-22.5,8-22.5,16.1c0,7.7,6.4,12.1,17,12.1C517.6,101.1,531.6,95,531.6,82.8z"/>
	<path class="st3" d="M572.7,88.4c0,8.9,2.6,12.2,9.1,12.2c4.1,0,6.2-0.6,9.6-2l-1,7c-2.5,1.2-5.8,1.9-9.6,1.9
		c-10.3,0-15.4-5.7-15.4-18.3V0h7.3V88.4z"/>
	<path class="st3" d="M643.8,101.3c-3.8,3.6-9.4,6.1-16.4,6.1c-11.3,0-18.9-6.1-18.9-19.6V39.6H594v-6.2h14.5V15.2l7.3-2v20.2h27.3
		v6.2h-27.3v47.2c0,9.1,4.5,13.9,12.8,13.9c5.2,0,9.1-1.9,12.6-5.4L643.8,101.3z"/>
	<path class="st3" d="M720.2,58.8V106h-7.3V61.1c0-15.8-8.7-22.9-21.2-22.9c-13.6,0-26,9.9-26,26.9V106h-7.3V0h7.3v47.9
		c4.6-10.5,14.7-16,26.7-16C708.6,31.9,720.2,41.1,720.2,58.8z"/>
	<path class="st3" d="M841.7,99.3v6.7h-48.7V10.2h7.3v89.1H841.7z"/>
	<path class="st3" d="M1000,69.9c-0.1,23.7-12.8,37.7-33.2,37.6c-13.1,0-22.9-6.9-26.9-17.8l-0.5,16.3l-6.5,0l0.4-106l7.3,0
		l-0.2,48.8c4.4-10.3,14.1-16.8,26.8-16.8C987.5,32.1,1000.1,46.3,1000,69.9z M992.7,69.9c0.1-19.5-9.8-31.4-26.6-31.5
		c-15.7-0.1-25.9,11.7-26,30.5l0,1.5c-0.1,19,10.2,30.7,25.7,30.7C982.8,101.2,992.7,89.4,992.7,69.9z"/>
	<g>
		<polygon class="st3" points="891.9,33.7 891.9,33.7 882.5,33.7 882.5,33.7 		"/>
	</g>
	<g>
		<path class="st3" d="M916.8,96.7l-19.4-38.3l0.1-19.1l4.6,0l0-5.9l-4.6,0l-20.5-0.1l-5,0l0,5.9l5,0l-0.1,19.1l-19.7,38.2
			c-1,1.9-0.9,4.1,0.2,5.9c1.1,1.8,3,2.9,5.1,2.9l48.9,0.2c0,0,0,0,0,0c2.1,0,4-1.1,5.1-2.9C917.6,100.8,917.7,98.6,916.8,96.7z
			 M882.7,59.8l0.1-20.5v0l8.7,0v0l-0.1,20.5l9.1,18l-27.1-0.1L882.7,59.8z M911.4,99.6l-48.9-0.2l0,3l-0.1-3.1l8-15.6l33.1,0.1
			L911.4,99.6C911.5,99.6,911.4,99.6,911.4,99.6z"/>
	</g>
</g>
</svg>
