<?xml version="1.0" encoding="utf-8"?>
<!-- Generator: Adobe Illustrator 25.0.0, SVG Export Plug-In . SVG Version: 6.00 Build 0)  -->
<svg version="1.1" id="Layer_1" xmlns="http://www.w3.org/2000/svg" xmlns:xlink="http://www.w3.org/1999/xlink" x="0px" y="0px"
	 viewBox="0 0 1000 107.6" style="enable-background:new 0 0 1000 107.6;" xml:space="preserve">
<path d="M77.2,16.8h-35V106H35V16.8H0v-6.7h77.2V16.8z"/>
<path d="M151.4,58.8V106h-7.3V61.1c0-15.8-8.7-22.9-21.2-22.9c-13.6,0-26,9.9-26,26.9V106h-7.3V0H97v47.9c4.6-10.5,14.7-16,26.7-16
	C139.8,31.9,151.4,41.1,151.4,58.8z"/>
<path d="M236.7,72.7h-57.5c1,17.7,10.9,28.3,27,28.3c11.3,0,20-4.8,23.7-13.4l6.1,3.2c-5.4,10.3-15.2,16.6-29.8,16.6
	c-21.5,0-34.3-14.2-34.3-37.8s12.2-37.8,33.4-37.8c20.2,0,31.7,14.8,31.7,36C237,69.8,236.8,71.6,236.7,72.7z M179.2,66.2h51
	c-1-17.3-9.7-27.9-24.8-27.9C189.6,38.3,180.2,48.6,179.2,66.2z"/>
<path d="M379.1,10.2V106h-7.3V60.7h-59.2V106h-7.3V10.2h7.3v43.7h59.2V10.2H379.1z"/>
<path d="M466.1,72.7h-57.5c1,17.7,10.9,28.3,27,28.3c11.3,0,20-4.8,23.7-13.4l6.1,3.2c-5.4,10.3-15.2,16.6-29.8,16.6
	c-21.5,0-34.3-14.2-34.3-37.8s12.2-37.8,33.4-37.8c20.2,0,31.7,14.8,31.7,36C466.4,69.8,466.2,71.6,466.1,72.7z M408.6,66.2h51
	c-1-17.3-9.7-27.9-24.8-27.9C419,38.3,409.6,48.6,408.6,66.2z"/>
<path d="M551.2,100.2l-0.4,5.8c-1.6,0.9-4.1,1.5-7.1,1.5c-6,0-11.2-2.5-11.9-12.3c-4.6,8.1-16,12.3-26.3,12.3
	c-13.9,0-23.7-6.4-23.7-18.4c0-11,8.7-18.4,27.6-21.8l22.2-3.9V57c0-11.5-7-18.6-19.7-18.6c-11.3,0-19.2,4.8-23.2,15.4l-5.5-4.1
	c4.2-11.3,14.4-17.7,28.7-17.7c16.4,0,27,8,27,24.1v37.5c0,5.2,2.3,7.7,6.7,7.7C547.5,101.2,549.7,100.9,551.2,100.2z M531.6,82.8
	V69.3l-19.9,3.6c-15.7,2.9-22.5,8-22.5,16.1c0,7.7,6.4,12.1,17,12.1C517.6,101.1,531.6,95,531.6,82.8z"/>
<path d="M572.7,88.4c0,8.9,2.6,12.2,9.1,12.2c4.1,0,6.2-0.6,9.6-2l-1,7c-2.5,1.2-5.8,1.9-9.6,1.9c-10.3,0-15.4-5.7-15.4-18.3V0h7.3
	L572.7,88.4L572.7,88.4z"/>
<path d="M643.8,101.3c-3.8,3.6-9.4,6.1-16.4,6.1c-11.3,0-18.9-6.1-18.9-19.6V39.6H594v-6.2h14.5V15.2l7.3-2v20.2h27.3v6.2h-27.3
	v47.2c0,9.1,4.5,13.9,12.8,13.9c5.2,0,9.1-1.9,12.6-5.4L643.8,101.3z"/>
<path d="M720.2,58.8V106h-7.3V61.1c0-15.8-8.7-22.9-21.2-22.9c-13.6,0-26,9.9-26,26.9V106h-7.3V0h7.3v47.9c4.6-10.5,14.7-16,26.7-16
	C708.6,31.9,720.2,41.1,720.2,58.8z"/>
<path d="M841.7,99.3v6.7H793V10.2h7.3v89.1C800.3,99.3,841.7,99.3,841.7,99.3z"/>
<path d="M1000,69.9c-0.1,23.7-12.8,37.7-33.2,37.6c-13.1,0-22.9-6.9-26.9-17.8l-0.5,16.3h-6.5l0.4-106h7.3l-0.2,48.8
	c4.4-10.3,14.1-16.8,26.8-16.8C987.5,32.1,1000.1,46.3,1000,69.9z M992.7,69.9c0.1-19.5-9.8-31.4-26.6-31.5
	c-15.7-0.1-25.9,11.7-26,30.5v1.5c-0.1,19,10.2,30.7,25.7,30.7C982.8,101.2,992.7,89.4,992.7,69.9z"/>
<path d="M916.8,96.7l-19.4-38.3l0.1-19.1h4.6v-5.9h-4.6L877,33.3h-5v5.9h5l-0.1,19.1l-19.7,38.2c-1,1.9-0.9,4.1,0.2,5.9
	c1.1,1.8,3,2.9,5.1,2.9l48.9,0.2l0,0c2.1,0,4-1.1,5.1-2.9C917.6,100.8,917.7,98.6,916.8,96.7z M882.7,59.8l0.1-20.5l0,0h8.7l0,0
	l-0.1,20.5l9.1,18l-27.1-0.1L882.7,59.8z M911.4,99.6l-48.9-0.2v3l-0.1-3.1l8-15.6l33.1,0.1L911.4,99.6
	C911.5,99.6,911.4,99.6,911.4,99.6z"/>
</svg>
