<?xml version="1.0" encoding="utf-8"?>
<!-- Generator: Adobe Illustrator 25.0.0, SVG Export Plug-In . SVG Version: 6.00 Build 0)  -->
<svg version="1.1" id="Layer_1" xmlns="http://www.w3.org/2000/svg" xmlns:xlink="http://www.w3.org/1999/xlink" x="0px" y="0px"
	 viewBox="0 0 841.9 595.3" style="enable-background:new 0 0 841.9 595.3;" xml:space="preserve">
<style type="text/css">
	.st0{fill:#489FB5;}
	.st1{fill:#FFA62B;}
</style>
<g>
	<g>
		
			<rect x="134.3" y="271.8" transform="matrix(3.616875e-03 -1 1 3.616875e-03 -85.8413 506.9067)" class="st0" width="154.2" height="49.4"/>
	</g>
	<g>
		
			<rect x="553.4" y="271.8" transform="matrix(3.616875e-03 -1 1 3.616875e-03 331.6992 925.9601)" class="st0" width="154.2" height="49.4"/>
	</g>
	<g>
		<g>
			
				<rect x="393.8" y="167.1" transform="matrix(2.146733e-03 -1 1 2.146733e-03 123.5459 716.8723)" class="st1" width="54.4" height="258.8"/>
		</g>
		<g>
			
				<rect x="174.4" y="269.3" transform="matrix(2.362741e-03 -1 1 2.362741e-03 -5.3534 587.6931)" class="st1" width="234.9" height="54.4"/>
		</g>
		<g>
			
				<rect x="432.7" y="269.3" transform="matrix(2.362741e-03 -1 1 2.362741e-03 252.2654 845.9212)" class="st1" width="234.9" height="54.4"/>
		</g>
	</g>
</g>
</svg>
