<?xml version="1.0" encoding="utf-8"?>
<!-- Generator: Adobe Illustrator 24.3.0, SVG Export Plug-In . SVG Version: 6.00 Build 0)  -->
<svg version="1.1" id="Layer_1" xmlns="http://www.w3.org/2000/svg" xmlns:xlink="http://www.w3.org/1999/xlink" x="0px" y="0px"
	 viewBox="0 0 841.9 595.3" style="enable-background:new 0 0 841.9 595.3;" xml:space="preserve">
<g>
	<path d="M666.3,367.3c-0.1-5-3.3-9.4-8-11.1l-40.2-15.1l5.9-18.9c1.9-6.1-1.1-12.5-6.9-15c-3.2-1.4-6.8-1.3-10,0.1
		c-3.2,1.5-5.6,4.2-6.6,7.5l-0.6,2l-8.5-2.7c9.3-29.5,16.5-52.6,16.6-53.2c1.6-5.4,2.1-13.5-1.5-19.9c-2.4-4.2-6.3-7.1-11.2-8.3
		c-2.8-0.7-5.2-1-7.4-1c-2.4,0-4.5,0.4-6.3,0.9c1.2-4.2,1.9-6.9,2-8c0.6-8.2,1.7-22-13.6-27.7c-14.9-5.6-24.1-1.4-33,14.8
		c-7.3,13.3-21.6,43.8-36.7,85.5l0,0c-0.6,0.3-3.2,0.9-9.9-1.4c-10.1-3.4-101.9-37.5-138.5-51.4c7.8-26,11.3-52.2,10.3-77.8l0,0
		c0-3.5-0.6-36.2-21.6-44.3c-18.3-7.1-36.7-1.7-53.2,15.5c-6.1-0.3-25.1,0.7-40.2,21.9c-7.1,10-13.6,20.2-19.2,30.6
		c-4.7-1-9.6,0.9-12.5,4.8l-17.5-5c-4.3-1.2-8.9-0.1-12,3c-4,4-9.1,11.8-10.3,25.9c-0.5,5.4,2.8,10.6,7.9,12.5l17.7,6.7
		c0.1,0.1,0.3,0.1,0.4,0.1c1,1.8,2.5,3.4,4.4,4.5c-3.4,11.5-5.9,23.2-7.6,35c-4.3,30.3,4.8,48,13.5,57.6
		c5.7,34.1,26.2,40.5,33.4,41.6c1.7,0.3,3.3,0.4,4.9,0.4c13.3,0,24.8-7.9,25.4-8.3c0,0,0,0,0.1,0l0,0c4.1-2.4,7.3-5.5,8.9-7
		c0.3-0.3,28.2-28.9,50.4-74.5c37.7,11.8,136.8,45.9,142.5,49.4c6.8,4.9,6.6,9.2,5.6,12.4c-0.1,0.2-0.1,0.4-0.1,0.6l0,0
		c-8.7,29.3-16.8,61.8-23,96.1c-0.3,1.6-0.7,3.9-0.7,6.5c0,6.5,2.7,14.9,16.6,19.7c2.9,1,5.7,1.5,8.4,1.5c3.3,0,6.5-0.8,9.4-2.3
		c7.5-3.9,13.3-12.7,18.1-27.4c1.9,4.7,5.6,8.6,12,10.8c1.8,0.6,3.8,1,5.9,1c6.3,0,13.8-3.6,20.6-16.3c1.7-3.1,8.4-23.3,16.8-49.2
		l8.4,3.8l-0.6,1.9c-1.9,6.1,1.1,12.5,6.9,15c1.6,0.7,3.2,1,4.9,1c1.8,0,3.5-0.4,5.1-1.1c3.2-1.5,5.6-4.2,6.6-7.5l5.4-17.3
		l41.1,14.9c1.4,0.5,2.8,0.7,4.2,0.7c4.9,0,9.5-2.9,11.4-7.7C665.6,382.4,666.4,373.1,666.3,367.3z M219.9,201.2
		c0.1-0.1,0.1-0.2,0.2-0.3c0.3-0.5,0.7-1.1,1-1.5c0.8-1.2,2-2,3.4-2.3c-6.4,12.6-11.8,25.4-16.1,38.5c-1.1-1.3-1.6-3.2-1.1-5
		C211.1,216.9,216.1,207.2,219.9,201.2z M200.6,228.7c-0.1,0.5-0.3,1-0.3,1.5l-14.1-5.4c-2.2-0.8-3.6-3.1-3.4-5.4
		c1-12,5.1-18.3,8.3-21.5c1.3-1.3,3.2-1.8,5.1-1.2l15.6,4.5C208.1,207.7,203.9,216.8,200.6,228.7z M210.7,307
		c-0.3,5.1-0.3,9.8-0.1,14.2c-4.8-9.3-8-22.9-5.2-42.4c1.8-12.4,4.5-24.6,8.2-36.6c0.1-0.2,0.1-0.5,0.2-0.7l0,0
		c8.3-27,21.4-53,39.1-77.7c9.3-13.1,20.2-17.3,27.4-18.5C261.5,165,215.5,217,210.7,307z M246.6,370.1c-6-1-22.9-6.4-27.7-36.4
		c-0.1-0.3-0.1-0.6-0.2-1c-1.1-7.1-1.5-15.5-1-25.4c4.8-92.1,54.2-143.4,70.5-160.2c1.3-1.3,2.3-2.4,3.2-3.4l0.1-0.1
		c10.2-11.1,26.7-22.7,46.7-15c7.8,3,12.1,11.1,14.4,19c-0.3-0.2-0.7-0.4-1-0.6c-7.2-3.6-16.9-1.4-28.6,6.6
		c-18.4,12.4-36.3,36-50.3,66.4c-14.5,31.4-23.6,67.7-25.6,102.1c-1.5,25.8,1.5,41.4,9.1,47.6C253.1,370.4,249.8,370.6,246.6,370.1z
		 M481.6,331.3c-4.3-3.1-67.7-24.8-80.3-29.1c-23.6-8.1-50.6-17.1-66.7-22c0,0,0,0-0.1,0c-0.2-0.1-0.5-0.1-0.7-0.2
		c-7.2-2.2-12.1-3.5-13.2-3.3c-1.9,0.2-3.3,1.9-3.1,3.8c0.2,1.8,1.7,3.2,3.5,3.2l0,0c0.9,0.1,3.5,0.8,7.2,1.9
		c-21.5,44-48.3,71.3-48.5,71.6c-2.2,2.2-4.8,4.3-7.4,5.9l0,0c-0.2,0.1-0.3,0.2-0.5,0.3l0,0c0,0-0.1,0-0.1,0.1l-0.1,0.1
		c-3.4,1.9-6.9,2.9-9.6,1.7c-3.8-1.7-9.9-9.5-8-42.6c1.9-33.6,10.8-68.9,24.9-99.6c13.5-29.2,30.5-51.8,47.9-63.5
		c9.4-6.4,16.9-8.5,21.6-6.1c6.3,3.1,7,13.5,7,13.5c0.9,24.7-2.4,49.9-9.9,75c-4.7-1.8-7.6-2.9-8.3-3.2c-1.7-0.9-3.8-0.2-4.7,1.6
		c-0.9,1.7-0.2,3.8,1.6,4.7c3.9,2,140.9,53,154.3,57.5c4,1.3,7.1,1.9,9.6,2c-3.6,10.1-7.2,20.9-10.7,32.1
		C485.8,334.7,483.9,332.9,481.6,331.3z M514.9,411.7c-0.2,0.5-0.3,0.9-0.5,1.4c-3.7,11.1-6.3,19.3-7.4,23.1
		c-4.6,16.1-9.9,25.6-16.5,29c-3.5,1.9-7.5,2-12.3,0.4c-13.7-4.7-12.3-12.6-11.3-18.3c20.3-113.4,61.9-206.1,76.2-232.2
		c8-14.6,14.3-15.4,24.4-11.6c9.6,3.6,9.8,10.8,9.1,20.6c-0.2,1.6-2.1,8.4-5.3,18.4c0,0.1-0.1,0.1-0.1,0.2l-0.1,0.4l-47.4,142.1
		l-8,23.9C515.5,409.9,515.2,410.8,514.9,411.7z M561.8,384.5c0,0.1,0,0.1-0.1,0.2c-8.8,27.2-15.9,48.8-17.4,51.7
		c-5.4,10.1-11.5,14.2-18.1,11.9c-8.7-3-12.5-9.9-4.6-34.7c0.2-0.7,0.5-1.5,0.8-2.3l7.2-21.6c3.8-11.2,7.9-23.4,12.1-35.9
		c16.4-48.7,29.2-86.5,36.1-108.5v-0.1c0.1-0.3,0.2-0.5,0.3-0.8v-0.1c0.7-1.7,3-5.7,9.9-5.7c1.6,0,3.5,0.2,5.7,0.8
		c3,0.7,5.3,2.4,6.8,5c2.1,3.7,2.5,9.3,0.9,14.4c-1.5,5-8.7,28.1-17.5,56.2v0.1c0,0.1-0.1,0.2-0.1,0.3c0,0.1,0,0.1,0,0.1
		C576.7,337.7,568.7,362.8,561.8,384.5z M577.7,387.5l-8.4-3.8c6.4-20,13.6-42.6,20-63l8.5,2.7L577.7,387.5z M598.4,380.7l-6.5,20.7
		c-0.5,1.5-1.5,2.6-2.9,3.2s-2.9,0.7-4.3,0.1c-2.5-1.1-3.8-3.9-3-6.5l1.5-4.8c0-0.1,0.1-0.2,0.1-0.3l22.2-70.7c0,0,0,0,0-0.1v-0.1
		c0,0,0,0,0-0.1c0,0,0,0,0-0.1l1.7-5.3c0.5-1.5,1.5-2.6,2.9-3.2c0.7-0.3,1.5-0.5,2.2-0.5s1.4,0.1,2.1,0.4c2.5,1.1,3.8,3.9,3,6.5
		l-6.9,22.1L598.4,380.7z M654.2,391.5c-1.1,2.7-4.1,4-6.8,3.1l-41.4-15l10-31.8l39.8,14.9c2.1,0.8,3.4,2.6,3.5,4.8
		C659.4,372.6,658.6,380.9,654.2,391.5z"/>
	<path d="M310.3,287.8c-0.8,0-1.6-0.3-2.3-0.8c-0.6-0.5-14.8-13.2-0.9-42.5c11.1-23.4,28.7-17.5,28.9-17.5c1.8,0.6,2.8,2.6,2.2,4.5
		c-0.6,1.8-2.6,2.8-4.4,2.2c-0.6-0.2-12-3.6-20.3,13.9c-11.5,24.2-1.3,33.9-0.8,34.3c1.4,1.3,1.5,3.5,0.3,4.9
		C312.3,287.4,311.3,287.8,310.3,287.8z"/>
</g>
</svg>
